<svg xmlns="http://www.w3.org/2000/svg" width="128" height="128"><path d="M113.241 107.734a8.453 8.453 0 0 0 8.452-8.452V34.267l-6.855-14H79.307l-6.855 14v73.467z" fill="#fcc101"/><path d="M113.241 107.734a8.453 8.453 0 0 1-8.452-8.452V34.267H55.548l-6.855-14H13.162l-6.855 14v65.015a8.453 8.453 0 0 0 8.452 8.452z" fill="#f4dd45"/><path d="M71.035 60.7H41.8a1.75 1.75 0 0 1 0-3.5h29.235a1.75 1.75 0 0 1 0 3.5zM71.035 72.751H41.8a1.75 1.75 0 0 1 0-3.5h29.235a1.75 1.75 0 0 1 0 3.5zM71.035 84.8H41.8a1.75 1.75 0 0 1 0-3.5h29.235a1.75 1.75 0 0 1 0 3.5z" fill="#fcc101"/></svg>